<?xml version="1.0" encoding="UTF-8"?>
<svg xmlns="http://www.w3.org/2000/svg" xmlns:xlink="http://www.w3.org/1999/xlink" width="6pt" height="9pt" viewBox="0 0 6 9" version="1.1">
<g id="surface1">
<path style=" stroke:none;fill-rule:nonzero;fill:rgb(0%,0%,0%);fill-opacity:1;" d="M 0.566406 8.585938 C 0.714844 8.585938 0.859375 8.539062 0.964844 8.457031 L 6.027344 4.621094 L 6.042969 4.609375 C 6.089844 4.570312 6.128906 4.527344 6.160156 4.476562 C 6.195312 4.417969 6.210938 4.351562 6.210938 4.28125 C 6.210938 4.21875 6.195312 4.152344 6.160156 4.09375 C 6.128906 4.042969 6.089844 4 6.039062 3.960938 C 6.035156 3.957031 6.03125 3.953125 6.027344 3.949219 L 0.960938 0.113281 C 0.851562 0.0273438 0.703125 -0.0195312 0.546875 -0.015625 C 0.394531 -0.0117188 0.246094 0.0390625 0.144531 0.128906 C -0.0703125 0.316406 -0.0625 0.601562 0.167969 0.78125 L 4.796875 4.289062 L 0.167969 7.800781 C -0.0625 7.980469 -0.0703125 8.261719 0.144531 8.453125 C 0.253906 8.539062 0.40625 8.585938 0.566406 8.585938 Z M 0.566406 8.585938 "/>
</g>
</svg>
